<svg width="233" height="166" viewBox="0 0 233 166" fill="none" xmlns="http://www.w3.org/2000/svg">
<g filter="url(#filter0_d_2456_146)">
<path d="M85.5037 42L42 105.008V106H53.2425L85.5037 58.8682V106H95.2799V42H85.5037Z" fill="white"/>
<path d="M124.119 69.2868H101.146V79.2093H124.119V106H133.896V42H124.119V69.2868Z" fill="white"/>
<path d="M151.493 42H140.739V51.9225H151.493C155.403 51.9225 159.802 55.8915 159.802 60.8527C159.802 65.814 156.381 69.2868 151.493 69.2868H140.739V74.7442L162.246 106H173V105.008L154.914 78.7132C160.617 77.3902 171.534 71.569 169.578 58.8682C167.623 46.1674 156.706 42.3307 151.493 42Z" fill="white"/>
</g>
<defs>
<filter id="filter0_d_2456_146" x="-18" y="-18" width="251" height="184" filterUnits="userSpaceOnUse" color-interpolation-filters="sRGB">
<feFlood flood-opacity="0" result="BackgroundImageFix"/>
<feColorMatrix in="SourceAlpha" type="matrix" values="0 0 0 0 0 0 0 0 0 0 0 0 0 0 0 0 0 0 127 0" result="hardAlpha"/>
<feOffset/>
<feGaussianBlur stdDeviation="30"/>
<feColorMatrix type="matrix" values="0 0 0 0 0.188235 0 0 0 0 0.192157 0 0 0 0 0.2 0 0 0 0.3 0"/>
<feBlend mode="normal" in2="BackgroundImageFix" result="effect1_dropShadow_2456_146"/>
<feBlend mode="normal" in="SourceGraphic" in2="effect1_dropShadow_2456_146" result="shape"/>
</filter>
</defs>
</svg>
