<svg width="290" height="204" viewBox="0 0 290 204" fill="none" xmlns="http://www.w3.org/2000/svg">
<g filter="url(#filter0_d_2456_212)">
<path d="M116.455 60L60 142.698V144H74.5896L116.455 82.1395V144H129.142V60H116.455Z" fill="#131E29"/>
<path d="M166.567 95.814H136.754V108.837H166.567V144H179.254V60H166.567V95.814Z" fill="#131E29"/>
<path d="M202.09 60H188.134V73.0233H202.09C207.164 73.0233 212.873 78.2326 212.873 84.7442C212.873 91.2558 208.433 95.814 202.09 95.814H188.134V102.977L216.045 144H230V142.698L206.53 108.186C213.93 106.45 228.097 98.8093 225.56 82.1395C223.022 65.4698 208.856 60.4341 202.09 60Z" fill="#131E29"/>
</g>
<defs>
<filter id="filter0_d_2456_212" x="0" y="0" width="290" height="204" filterUnits="userSpaceOnUse" color-interpolation-filters="sRGB">
<feFlood flood-opacity="0" result="BackgroundImageFix"/>
<feColorMatrix in="SourceAlpha" type="matrix" values="0 0 0 0 0 0 0 0 0 0 0 0 0 0 0 0 0 0 127 0" result="hardAlpha"/>
<feOffset/>
<feGaussianBlur stdDeviation="30"/>
<feColorMatrix type="matrix" values="0 0 0 0 0.188235 0 0 0 0 0.192157 0 0 0 0 0.2 0 0 0 0.3 0"/>
<feBlend mode="normal" in2="BackgroundImageFix" result="effect1_dropShadow_2456_212"/>
<feBlend mode="normal" in="SourceGraphic" in2="effect1_dropShadow_2456_212" result="shape"/>
</filter>
</defs>
</svg>
